<?xml version="1.0" standalone="no"?>
<!DOCTYPE svg PUBLIC "-//W3C//DTD SVG 20010904//EN"
 "http://www.w3.org/TR/2001/REC-SVG-20010904/DTD/svg10.dtd">
<svg version="1.0" xmlns="http://www.w3.org/2000/svg"
 width="600.000000pt" height="400.000000pt" viewBox="0 0 600.000000 400.000000"
 preserveAspectRatio="xMidYMid meet">
<metadata>
Created by potrace 1.15, written by Peter Selinger 2001-2017
</metadata>
<g transform="translate(0.000000,400.000000) scale(0.100000,-0.100000)"
fill="#000000" stroke="none">
<path d="M780 3034 c-46 -14 -85 -26 -85 -27 -27 -52 -35 -81 -26 -90 16 -16
13 -34 -8 -54 -10 -10 -22 -33 -26 -50 -5 -25 -12 -33 -28 -33 -16 -1 -41 -26
-87 -86 -36 -47 -71 -95 -79 -107 -16 -25 47 40 101 105 20 24 58 56 85 69 39
20 49 30 51 55 6 64 11 71 77 103 36 17 73 31 81 31 21 0 104 49 104 62 0 5 3
7 8 5 4 -3 23 6 42 19 l34 24 -79 -1 c-55 0 -107 -8 -165 -25z"/>
<path d="M1380 3048 c-41 -19 -93 -44 -124 -61 l-28 -15 36 -11 c31 -8 48 -6
104 16 69 26 209 53 275 53 26 0 37 4 37 15 0 13 -22 15 -137 14 -78 0 -149
-5 -163 -11z"/>
<path d="M1530 2985 c-41 -7 -87 -17 -101 -23 -15 -6 -29 -8 -33 -5 -3 3 -17
2 -31 -1 -18 -5 -25 -12 -21 -21 3 -8 1 -17 -4 -20 -4 -3 -10 1 -13 7 -11 31
-17 -45 -9 -113 l9 -74 8 63 c7 55 9 60 21 45 12 -17 13 -17 14 -1 0 9 -4 20
-10 23 -5 3 -10 13 -10 21 0 11 4 12 19 4 14 -7 38 -6 83 5 35 8 100 15 146
15 l82 0 0 41 c0 40 -1 41 -30 37 -16 -3 -30 -1 -30 4 0 4 -3 7 -7 7 -5 -1
-42 -7 -83 -14z"/>
<path d="M960 2955 c0 -29 29 -35 50 -10 16 20 46 18 155 -8 81 -20 90 -25 93
-47 2 -14 11 -33 19 -42 9 -11 -5 -6 -40 12 -32 16 -57 24 -59 18 -3 -7 -27
-7 -78 1 -41 6 -95 13 -120 16 -25 3 -46 10 -48 15 -7 21 -32 -4 -32 -34 0
-22 -8 -37 -30 -55 -17 -13 -30 -27 -30 -33 0 -5 -5 -14 -10 -21 -6 -7 -19
-23 -31 -37 -11 -14 -18 -19 -14 -12 4 7 0 12 -10 12 -12 0 -15 5 -11 16 6 15
4 15 -18 0 -14 -9 -32 -16 -40 -16 -21 0 -58 -21 -91 -53 -25 -23 -27 -29 -15
-37 12 -7 11 -10 -5 -16 -27 -10 -51 -34 -34 -34 9 0 8 -4 -1 -15 -7 -8 -9
-15 -6 -15 4 0 1 -6 -6 -14 -7 -8 -16 -12 -19 -10 -4 2 -12 -18 -19 -44 -7
-26 -17 -51 -21 -56 -5 -6 -9 -23 -9 -39 0 -25 -2 -28 -15 -17 -18 15 -18 8
-9 -63 6 -43 24 -57 24 -19 0 10 15 32 34 49 22 22 37 48 45 80 22 91 44 153
53 153 6 0 7 11 4 25 -5 21 0 32 26 55 18 17 36 30 40 30 5 0 8 7 8 15 0 8 7
15 16 15 14 0 14 -3 4 -15 -8 -10 -9 -15 -2 -15 6 0 9 -7 6 -15 -4 -9 0 -15 8
-15 8 0 32 -8 53 -19 l39 -19 -32 -16 c-18 -9 -32 -22 -32 -29 0 -15 -23 -35
-71 -61 -18 -11 -42 -28 -52 -38 -22 -22 -47 -80 -47 -107 0 -17 5 -20 30 -14
46 9 40 -15 -37 -150 -3 -5 -18 6 -35 25 -25 29 -28 30 -22 9 4 -16 3 -21 -5
-17 -14 9 -14 0 4 -108 9 -56 24 -104 40 -132 14 -24 21 -44 15 -44 -6 0 -8
-5 -4 -11 5 -8 9 -8 14 1 11 17 32 2 26 -18 -3 -10 -6 -46 -7 -82 -1 -36 -8
-81 -15 -100 -18 -47 -94 -359 -94 -387 l0 -23 589 0 c528 0 589 2 595 16 9
23 7 1234 -1 1235 -5 1 -21 3 -38 5 -75 9 -117 20 -116 29 2 14 66 48 119 63
l42 13 0 49 0 50 -42 0 c-24 0 -60 -5 -82 -9 -40 -10 -96 -55 -96 -78 0 -8 -6
-13 -12 -12 -32 4 -48 -2 -48 -18 0 -13 2 -15 8 -5 7 10 14 10 38 -3 l29 -15
-37 0 c-21 0 -38 -3 -39 -7 0 -5 -2 -17 -4 -28 -2 -11 -11 -88 -20 -170 -15
-148 -29 -279 -43 -384 -6 -47 -10 -55 -31 -58 -23 -3 -24 -2 -17 49 4 29 9
234 12 455 5 360 4 404 -11 426 -14 22 -63 48 -49 26 3 -5 4 -9 2 -9 -2 0 -52
9 -113 20 -150 27 -165 26 -165 -5z m-28 -193 c2 -50 0 -92 -4 -92 -5 0 -8 -7
-8 -16 0 -9 5 -12 13 -8 9 6 9 4 1 -7 -11 -13 -31 -250 -21 -239 3 3 7 19 8
35 4 29 15 45 32 45 5 0 5 -5 1 -11 -4 -8 -1 -8 12 -2 11 5 26 9 34 8 8 -1 23
-3 32 -3 9 -1 24 -9 33 -19 14 -13 18 -14 25 -3 7 11 11 10 25 -3 14 -14 70
-35 114 -42 19 -2 29 -30 30 -81 1 -47 -12 -64 -50 -64 -18 0 -28 6 -32 20 -4
15 -14 20 -36 20 -25 0 -31 4 -31 23 -1 21 -1 22 -13 2 -7 -12 -22 -20 -39
-20 -35 1 -38 4 -40 53 -2 49 -19 55 -44 17 -13 -21 -14 -28 -4 -41 11 -12 7
-11 -17 3 -17 9 -29 22 -26 29 2 7 0 15 -6 19 -7 3 -8 0 -5 -9 3 -9 1 -16 -5
-16 -6 0 -11 -11 -11 -25 0 -14 5 -25 10 -25 6 0 10 7 10 16 0 8 4 12 10 9 8
-5 8 -29 1 -75 -1 -3 -5 2 -11 10 -5 8 -11 12 -13 10 -8 -9 -12 -190 -4 -190
4 0 7 9 7 20 0 11 4 20 9 20 5 0 7 -10 5 -22 -4 -21 -4 -21 4 -3 5 11 10 42
11 68 2 56 21 119 37 124 6 2 10 -6 10 -18 -1 -15 10 -28 31 -40 27 -15 46
-17 120 -12 81 6 90 9 116 36 25 27 27 28 27 8 0 -28 -61 -89 -97 -97 -44 -9
-50 -12 -25 -13 12 -1 38 6 57 13 l35 15 0 -48 c0 -27 -3 -68 -6 -93 l-6 -44
-67 12 c-100 19 -310 69 -316 76 -2 1 1 23 6 48 9 44 31 402 25 408 -6 5 -61
-22 -85 -42 l-25 -21 21 35 c12 19 37 44 57 55 28 16 36 26 36 48 0 27 -2 28
-30 22 -16 -4 -30 -2 -30 3 0 11 30 37 53 45 14 5 17 18 17 71 0 36 6 77 12
92 15 33 16 27 20 -94z m223 95 c37 -9 51 -17 53 -32 2 -11 6 -27 9 -35 3 -8
5 -18 5 -22 -1 -5 2 -8 7 -8 14 0 21 -43 26 -168 l4 -113 -40 36 c-22 20 -51
40 -65 45 -33 13 -114 13 -114 0 0 -5 -6 -7 -13 -4 -7 2 -21 -2 -32 -11 -14
-10 -15 -13 -4 -9 13 4 15 0 12 -20 -5 -25 -27 -41 -44 -30 -5 3 -6 12 0 21 4
9 6 35 3 59 -3 30 0 51 12 68 18 29 22 71 5 60 -8 -4 -8 -1 0 13 11 22 11 64
0 57 -13 -8 -39 8 -39 25 0 9 3 12 8 6 9 -12 44 -16 36 -4 -3 5 0 9 5 9 6 0
11 4 11 8 0 5 -13 7 -30 4 -16 -2 -30 0 -30 6 0 5 10 9 22 8 14 -1 23 5 24 14
3 43 2 43 62 36 32 -4 80 -12 107 -19z"/>
<path d="M3966 2613 c-3 -10 -8 -35 -12 -55 -4 -26 -12 -38 -23 -38 -69 0
-155 -63 -186 -136 -18 -45 -19 -113 -1 -136 8 -12 27 -18 51 -18 29 0 45 7
68 32 17 17 27 24 24 14 -7 -17 -51 -273 -78 -443 l-11 -73 -59 0 c-59 0 -59
0 -59 -29 0 -29 2 -30 63 -36 34 -4 91 -7 127 -8 l65 -2 0 30 c0 28 -3 30 -43
33 -35 3 -42 6 -38 20 2 9 12 62 22 117 l17 100 56 -3 c55 -3 76 5 115 47 4 5
23 24 41 43 58 61 95 162 95 256 0 109 -47 178 -130 189 -22 3 -40 7 -40 8 0
1 7 19 15 38 24 59 21 67 -29 67 -34 0 -46 -4 -50 -17z m104 -195 c37 -42 46
-86 30 -157 -15 -66 -58 -154 -82 -170 -16 -10 -18 -7 -18 19 0 28 -3 30 -36
30 -30 0 -35 3 -32 18 3 9 20 79 39 155 37 154 46 163 99 105z"/>
<path d="M5039 2610 c-72 -9 -79 -14 -79 -56 0 -30 3 -34 26 -34 l27 0 -7 -77
c-10 -108 -62 -456 -89 -588 l-22 -110 -37 -3 c-37 -3 -38 -4 -38 -43 l0 -39
84 0 c78 0 84 1 90 23 12 44 7 57 -19 57 -14 0 -25 3 -25 8 0 27 82 339 94
357 48 72 87 94 116 63 37 -40 22 -112 -55 -270 -58 -118 -69 -176 -43 -233
26 -58 113 -8 138 80 17 59 7 95 -25 95 -28 0 -31 7 -11 29 7 9 30 47 51 85
33 61 38 79 43 157 4 78 2 91 -17 123 -21 34 -26 36 -75 36 -39 0 -59 -5 -76
-20 -13 -11 -25 -18 -27 -16 -4 3 42 254 53 294 2 6 12 12 23 12 22 0 41 27
41 59 0 18 -6 21 -42 20 -24 -1 -68 -5 -99 -9z"/>
<path d="M1995 2515 c-48 -22 -73 -50 -100 -107 -39 -84 -30 -181 23 -232 30
-29 65 -56 73 -56 4 0 14 -6 21 -13 7 -7 25 -20 39 -29 61 -39 36 -148 -52
-240 -33 -33 -66 -58 -77 -58 -11 0 -23 -6 -25 -12 -4 -10 -6 -10 -6 0 -1 6
-7 12 -15 12 -24 0 -40 56 -29 103 l11 42 1 -42 1 -43 43 0 c35 0 48 6 68 28
55 62 73 137 45 190 -15 30 -20 32 -68 32 -49 0 -53 -2 -104 -55 -44 -47 -55
-66 -65 -113 -15 -72 -6 -146 23 -188 22 -32 27 -34 81 -34 31 0 57 4 57 9 0
5 11 12 25 15 52 13 156 148 175 226 28 117 5 177 -108 286 -71 68 -78 108
-32 177 18 26 42 50 56 53 13 3 24 10 24 15 0 5 9 1 20 -8 14 -12 20 -29 19
-53 -1 -19 -3 -27 -6 -17 -3 12 -15 17 -43 17 -51 0 -70 -21 -70 -75 0 -67 6
-75 55 -75 39 0 46 4 74 42 54 73 66 175 24 205 -23 17 -120 16 -158 -2z"/>
<path d="M2369 2303 c-9 -10 -33 -31 -54 -48 -73 -59 -119 -198 -81 -247 14
-19 86 -26 86 -9 0 5 8 12 18 15 24 8 62 78 62 115 0 45 -10 61 -36 61 -35 0
-29 18 9 28 55 16 63 -2 42 -92 -9 -42 -29 -100 -44 -129 l-27 -52 -56 -3
c-49 -3 -61 -8 -96 -41 -45 -43 -62 -104 -43 -154 11 -27 14 -29 61 -25 42 2
50 0 50 -14 0 -12 8 -18 24 -18 20 0 25 7 35 44 11 45 72 169 97 197 8 8 14
19 14 23 0 4 9 19 20 33 29 37 60 146 60 210 0 39 -6 66 -21 89 -18 30 -26 34
-63 34 -27 0 -47 -6 -57 -17z"/>
<path d="M3289 2303 c-9 -10 -33 -31 -54 -48 -73 -59 -119 -198 -81 -247 14
-19 86 -26 86 -9 0 5 8 12 18 15 24 8 62 78 62 115 0 45 -10 61 -36 61 -35 0
-29 18 9 28 55 16 63 -2 42 -92 -9 -42 -29 -100 -44 -129 l-27 -52 -56 -3
c-49 -3 -61 -8 -96 -41 -45 -43 -62 -104 -43 -154 11 -27 14 -29 61 -25 42 2
50 0 50 -14 0 -12 8 -18 24 -18 20 0 25 7 35 44 11 45 72 169 97 197 8 8 14
19 14 23 0 4 9 19 20 33 29 37 60 146 60 210 0 39 -6 66 -21 89 -18 30 -26 34
-63 34 -27 0 -47 -6 -57 -17z"/>
<path d="M2610 2273 c-95 -14 -90 -12 -90 -48 0 -31 3 -35 25 -35 23 0 25 -4
25 -42 0 -52 -24 -216 -46 -315 -13 -60 -19 -72 -37 -75 -17 -2 -23 -11 -25
-37 l-3 -34 72 6 c72 6 89 15 89 50 0 12 -8 17 -25 17 -14 0 -25 6 -25 13 0 6
18 78 39 159 38 149 66 208 107 227 56 25 73 -47 39 -166 -17 -61 -19 -63 -50
-63 -24 0 -37 -7 -49 -25 -21 -32 -30 -77 -22 -110 5 -21 12 -25 44 -25 34 0
40 5 79 63 43 63 75 147 88 226 7 42 52 118 79 133 7 4 22 1 32 -7 26 -19 23
-116 -8 -220 l-24 -80 -40 3 c-34 3 -42 -1 -62 -27 -22 -30 -29 -90 -16 -125
8 -20 73 -22 96 -3 18 13 76 98 95 137 43 94 78 253 69 319 -10 73 -27 91 -89
91 -60 0 -68 -5 -100 -47 l-23 -31 -19 29 c-18 26 -26 29 -72 29 -29 0 -53 -4
-53 -10 0 -5 -4 -10 -10 -10 -5 0 -10 9 -10 20 0 20 -16 23 -80 13z"/>
<path d="M4740 2269 c-62 -25 -152 -152 -179 -254 -14 -53 -14 -193 0 -236 20
-59 50 -79 117 -79 66 0 72 6 72 66 0 27 -4 34 -19 34 -11 0 -22 -9 -26 -19
-7 -25 -41 -33 -60 -15 -18 19 -29 93 -21 148 9 59 43 153 67 187 10 15 19 30
19 34 0 3 7 13 15 21 8 8 21 24 28 35 20 28 71 41 94 23 16 -12 14 -13 -23
-14 -49 0 -74 -28 -74 -83 0 -43 15 -57 65 -57 69 1 105 45 105 129 0 71 -21
91 -97 90 -32 0 -69 -5 -83 -10z"/>
<path d="M4350 2263 c-21 -9 -38 -23 -98 -82 -76 -75 -105 -142 -110 -253 -4
-76 -1 -92 19 -133 33 -67 55 -78 135 -73 l67 4 54 60 c88 96 130 207 120 315
-7 80 -44 139 -87 139 -20 0 -30 5 -30 15 0 15 -39 20 -70 8z m96 -135 c19
-36 14 -95 -14 -175 -23 -65 -105 -173 -132 -173 -5 0 -10 -6 -11 -12 0 -10
-2 -10 -6 0 -2 6 -11 12 -19 12 -8 0 -24 20 -35 45 -17 38 -18 53 -10 102 11
67 34 134 56 166 15 21 15 21 15 -8 0 -59 10 -75 44 -75 17 0 36 4 42 8 20 13
44 71 44 107 0 43 5 44 26 3z"/>
<path d="M5471 2253 c-80 -61 -142 -146 -166 -226 -32 -109 -9 -277 42 -300
13 -6 23 -14 23 -19 0 -4 27 -8 60 -8 33 0 60 4 60 8 0 5 11 14 23 19 48 22
73 127 45 188 -9 21 -18 25 -53 25 -39 0 -43 -2 -64 -46 -15 -29 -22 -57 -19
-80 5 -46 -13 -44 -40 5 -25 44 -26 60 -11 131 10 48 12 50 28 36 21 -19 141
-22 172 -5 60 32 94 103 87 184 -6 77 -35 105 -108 105 -38 0 -63 -6 -79 -17z"/>
</g>
</svg>
